<svg width="400" height="300" viewBox="0 0 400 300" fill="none" xmlns="http://www.w3.org/2000/svg">
  <!-- Background -->
  <rect width="400" height="300" fill="#f8f9fa"/>
  
  <!-- Apartment representation -->
  <rect x="50" y="50" width="300" height="200" rx="20" fill="#4caf50" stroke="#388e3c" stroke-width="3"/>
  
  <!-- Living room -->
  <rect x="70" y="70" width="120" height="80" rx="10" fill="#8bc34a"/>
  <rect x="80" y="80" width="100" height="60" rx="5" fill="#c5e1a5"/>
  
  <!-- Kitchen -->
  <rect x="200" y="70" width="100" height="80" rx="10" fill="#ff9800"/>
  <rect x="210" y="80" width="80" height="60" rx="5" fill="#ffcc80"/>
  
  <!-- Bedroom 1 -->
  <rect x="70" y="170" width="80" height="60" rx="10" fill="#2196f3"/>
  <rect x="80" y="180" width="60" height="40" rx="5" fill="#90caf9"/>
  
  <!-- Bedroom 2 -->
  <rect x="170" y="170" width="80" height="60" rx="10" fill="#9c27b0"/>
  <rect x="180" y="180" width="60" height="40" rx="5" fill="#ce93d8"/>
  
  <!-- Bathroom -->
  <rect x="270" y="170" width="60" height="60" rx="10" fill="#795548"/>
  <rect x="280" y="180" width="40" height="40" rx="5" fill="#a1887f"/>
  
  <!-- Text -->
  <text x="200" y="280" text-anchor="middle" font-family="Arial, sans-serif" font-size="16" font-weight="bold" fill="#333">
    Appartamento Famiglia
  </text>
  <text x="200" y="295" text-anchor="middle" font-family="Arial, sans-serif" font-size="14" fill="#666">
    €220/notte
  </text>
</svg>
