<svg width="800" height="600" viewBox="0 0 800 600" xmlns="http://www.w3.org/2000/svg">
  <defs>
    <linearGradient id="heroGradient" x1="0%" y1="0%" x2="100%" y2="100%">
      <stop offset="0%" style="stop-color:#667eea;stop-opacity:1" />
      <stop offset="100%" style="stop-color:#764ba2;stop-opacity:1" />
    </linearGradient>
  </defs>
  
  <!-- Background -->
  <rect width="800" height="600" fill="url(#heroGradient)"/>
  
  <!-- Simple decorative elements -->
  <circle cx="100" cy="100" r="50" fill="rgba(255,255,255,0.1)"/>
  <circle cx="700" cy="150" r="30" fill="rgba(255,255,255,0.1)"/>
  <circle cx="150" cy="500" r="40" fill="rgba(255,255,255,0.1)"/>
  <circle cx="650" cy="450" r="25" fill="rgba(255,255,255,0.1)"/>
  
  <!-- Simple building -->
  <rect x="300" y="200" width="200" height="300" fill="rgba(255,255,255,0.2)"/>
  
  <!-- Windows -->
  <rect x="320" y="220" width="30" height="30" fill="rgba(255,255,255,0.3)"/>
  <rect x="370" y="220" width="30" height="30" fill="rgba(255,255,255,0.3)"/>
  <rect x="420" y="220" width="30" height="30" fill="rgba(255,255,255,0.3)"/>
  <rect x="470" y="220" width="30" height="30" fill="rgba(255,255,255,0.3)"/>
  
  <rect x="320" y="270" width="30" height="30" fill="rgba(255,255,255,0.3)"/>
  <rect x="370" y="270" width="30" height="30" fill="rgba(255,255,255,0.3)"/>
  <rect x="420" y="270" width="30" height="30" fill="rgba(255,255,255,0.3)"/>
  <rect x="470" y="270" width="30" height="30" fill="rgba(255,255,255,0.3)"/>
  
  <rect x="320" y="320" width="30" height="30" fill="rgba(255,255,255,0.3)"/>
  <rect x="370" y="320" width="30" height="30" fill="rgba(255,255,255,0.3)"/>
  <rect x="420" y="320" width="30" height="30" fill="rgba(255,255,255,0.3)"/>
  <rect x="470" y="320" width="30" height="30" fill="rgba(255,255,255,0.3)"/>
  
  <!-- Door -->
  <rect x="370" y="450" width="60" height="50" fill="rgba(255,255,255,0.4)"/>
</svg> 